<svg version="1.1" id="Layer_1" xmlns="http://www.w3.org/2000/svg" xmlns:xlink="http://www.w3.org/1999/xlink" x="0px" y="0px"
	 width="595.279px" height="157.023px" viewBox="0 300.974 595.279 157.023" enable-background="new 0 300.974 595.279 157.023"
	 xml:space="preserve">
<path fill="#FFFFFF" d="M233.27,406.762h-10.533v-12.84h25.892v32.941c-8.054,2.029-16.327,3.059-24.632,3.063
	c-20.981,0-30.675-7.889-30.675-34.326c0-26.437,11.707-33.57,33.276-33.57c6.82,0.016,13.618,0.79,20.268,2.308l-2.686,13.218
	c-5.272-1.206-10.663-1.826-16.071-1.846c-13.932,0-18.758,1.93-18.758,19.89s4.826,20.268,17.834,20.268
	c2.049-0.048,4.094-0.202,6.127-0.461L233.27,406.762z"/>
<path fill="#FFFFFF" d="M379.928,402.188h-12.84v-12.799h28.198v37.767c-8.054,2.027-16.326,3.057-24.632,3.063
	c-20.981,0-30.675-7.889-30.675-34.325c0-26.437,11.708-33.57,33.276-33.57c6.821,0.015,13.619,0.79,20.269,2.308l-2.686,13.218
	c-5.273-1.206-10.663-1.825-16.072-1.846c-13.932,0-18.799,1.972-18.799,19.89s4.825,20.268,17.876,20.268
	c2.049-0.046,4.094-0.2,6.126-0.461L379.928,402.188z"/>
<path fill="#FFFFFF" d="M405.904,381.207h14.309v3.693c1.595-2.812,4.658-5.036,11.54-5.036c1.585,0.014,3.167,0.112,4.742,0.294
	v13.134c-2.194-0.553-4.453-0.807-6.715-0.755c-5.119,0-9.567,1.678-9.567,4.826v31.219h-14.309V381.207z"/>
<path fill="#FFFFFF" d="M442.074,404.706c0-19.429,7.89-24.842,23.038-24.842s23.247,5.413,23.247,24.842
	s-7.721,25.177-23.247,25.177S442.074,424.05,442.074,404.706 M456.468,405c0,12.001,1.931,13.931,8.645,13.931
	S473.84,417,473.84,405c0-12.001-1.93-13.932-8.728-13.932S456.468,392.537,456.468,405"/>
<path fill="#FFFFFF" d="M526.377,381.207h14.142v44.732c-7.763,2.639-15.889,4.055-24.086,4.195
	c-13.219,0-19.513-5.58-19.513-22.575v-26.353h14.141v25.178c0,8.392,1.469,10.952,8.393,10.952
	c2.322-0.044,4.631-0.354,6.882-0.923L526.377,381.207z"/>
<path fill="#FFFFFF" d="M550.38,383.221c6.969-2.246,14.247-3.379,21.568-3.357c16.156,0,23.331,5.665,23.331,25.178
	s-8.392,25.177-20.184,25.177c-3.582,0.043-7.132-0.688-10.406-2.139v14.686h-14.31V383.221z M564.69,414.734
	c0,2.14,3.146,3.609,7.343,3.609c6.798,0,8.938-2.979,8.938-13.008c0-11.54-2.224-13.596-9.021-13.596
	c-2.465-0.008-4.915,0.374-7.26,1.133V414.734z"/>
<path fill="#FFFFFF" d="M294.157,392.998c2.812-3.315,8.392-12.295,19.345-28.996h-16.491c-5.134,8.22-10.738,16.136-16.785,23.709
	h-7.05v-23.793h-14.98v64.875h14.98v-26.101h8.771c3.902,4.196,7.763,11.498,14.896,26.101h17.036
	c-12.253-26.563-15.19-29.374-19.68-35.752"/>
<path fill="#FFFFFF" d="M185.432,395.684c0,26.689-10.784,34.41-31.514,34.41s-31.514-7.721-31.514-34.41
	c0-26.688,10.7-33.276,31.514-33.276S185.432,369.373,185.432,395.684 M169.445,395.684c0-17.666-2.434-19.68-15.526-19.68
	c-13.092,0-15.525,2.056-15.525,19.68c0,17.625,2.392,20.562,15.525,20.562C167.053,416.245,169.445,413.644,169.445,395.684"/>
<polygon fill="#9CC44F" points="81.743,300.974 0,373.821 0,428.792 81.743,428.792 "/>
<polygon fill="#B0CF61" points="0,335.509 0,373.821 25.681,350.952 "/>
<polygon fill="#40A652" points="25.681,350.952 0,373.821 0,428.792 81.743,428.792 81.743,384.647 "/>
<rect x="0" y="445.074" fill="#FFFFFF" width="81.701" height="12.924"/>
</svg>
