<?xml version="1.0" encoding="UTF-8"?>
<svg width="165px" height="165px" viewBox="0 0 165 165" version="1.1" xmlns="http://www.w3.org/2000/svg" xmlns:xlink="http://www.w3.org/1999/xlink">
    <!-- Generator: Sketch 54.1 (76490) - https://sketchapp.com -->
    <title>ill/small-doc-1</title>
    <desc>Created with Sketch.</desc>
    <g id="ill/small-doc-1" stroke="none" stroke-width="1" fill="none" fill-rule="evenodd">
        <g id="2-pic_1" transform="translate(36.000000, 24.000000)">
            <polygon id="Path" fill="#FFFFFF" points="11.5770988 64.9914112 1 58.8374729 1 3.5481167 31.9139633 21.2887859 31.9139633 1 91.3379898 35.2313213 91.3379898 90.5206699 71.0011291 78.8858662 71.0011291 119.79999 11.5770988 85.4725132"></polygon>
            <polygon id="Path" fill="#000000" fill-rule="nonzero" opacity="0.11" points="70.2084122 100.077805 105.231476 120.450729 70.3591232 120.450729"></polygon>
            <polygon id="Path" fill="#00A86A" fill-rule="nonzero" points="11.3197098 64.7126389 0.7426147 58.3663864 0.7426147 3.9424305 31.7046509 21.9234886 31.7046509 42.2122803 11.5120201 30.7697868"></polygon>
            <polyline id="Path" stroke="#272727" stroke-linecap="round" stroke-linejoin="round" points="31.7363892 21.7691193 0.9595833 4.000124 0.9595833 58.4240799 11.2844353 64.3851318"></polyline>
            <path d="M9.136528,13.6380234 C11.7596474,15.1524811 13.8811188,18.8210488 13.8725738,21.8352318 C13.8640251,24.849392 11.7287216,26.0603104 9.105606,24.5458527 C6.4876365,23.0343666 4.3661689,19.365799 4.3747138,16.3516388 C4.3832588,13.3374557 6.5185585,12.1265373 9.136528,13.6380234 Z" id="Path" fill="#FFFFFF" fill-rule="nonzero"></path>
            <path d="M16.6207352,22.3699913 L31.7392044,31.0507355" id="Path" stroke="#FFFFFF" stroke-linecap="round" stroke-linejoin="round"></path>
            <path d="M16.6207352,25.3296013 L31.7975693,34.0438538" id="Path" stroke="#FFFFFF" stroke-linecap="round" stroke-linejoin="round"></path>
            <path d="M16.6207352,31.4258537 L31.7975693,40.1401062" id="Path" stroke="#FFFFFF" stroke-linecap="round" stroke-linejoin="round"></path>
            <path d="M9.0200195,15.9605751 C9.5308036,16.2554741 9.9379196,16.6770821 10.2462768,17.2281914 C10.4958953,17.6775513 10.6226119,18.0955353 10.6215209,18.4792977 C10.6199683,19.0267106 10.3584365,19.3109704 9.8418197,19.340561 C10.1510276,19.5925713 10.3961105,19.9036485 10.581993,20.2766496 C10.7678527,20.6552926 10.8602752,21.0252076 10.8592032,21.4033204 C10.8576544,21.9507523 10.679531,22.3114243 10.334648,22.4966927 C9.9848555,22.6791459 9.5521124,22.6214982 9.0364188,22.323761 C8.5452803,22.0402031 8.1430014,21.6496582 7.8197783,21.1351853 C7.4965437,20.6263581 7.3111113,20.0953484 7.263481,19.542141 L8.2657851,19.9851532 C8.2993315,20.2984543 8.382202,20.5667648 8.5241812,20.8070259 C8.6612509,21.0444298 8.8329428,21.2170448 9.0343054,21.3333015 C9.2454947,21.4552307 9.427471,21.4698448 9.5753401,21.3686752 C9.7182959,21.2646713 9.7926863,21.0532493 9.7935827,20.7372131 C9.7944296,20.4381141 9.7263448,20.1613731 9.5893209,19.9070358 C9.4473875,19.6498565 9.2757452,19.460308 9.0743825,19.3440513 C8.9417722,19.2674903 8.7845342,19.2049789 8.5977246,19.1593055 L8.7134396,18.2538337 C8.7243763,18.2603606 8.7351986,18.2667045 8.7459141,18.2728919 C9.0144154,18.4279098 9.2153317,18.475788 9.3574177,18.4164809 C9.5051876,18.349182 9.5794216,18.1941909 9.5801083,17.9515036 C9.5806996,17.74271 9.5271565,17.542198 9.41946,17.3556631 C9.3117597,17.1691206 9.1695096,17.0248144 8.9877889,16.9198988 C8.8109777,16.8178137 8.6585157,16.8032797 8.5353353,16.8734854 C8.4072378,16.9408491 8.3329923,17.101467 8.302757,17.3553503 L7.3504827,16.6190145 C7.4153821,16.2834051 7.5193861,16.0382078 7.6526182,15.8946607 C7.7858656,15.7454908 7.9729917,15.6782796 8.2140158,15.6874196 C8.45504,15.6965637 8.7253418,15.7904434 9.0200195,15.9605751 Z" id="Path" fill="#00A86A" fill-rule="nonzero"></path>
            <polyline id="Path" stroke="#272727" stroke-linecap="round" stroke-linejoin="round" points="70.35495 78.1505737 90.5482941 89.8091965 90.5482941 35.3852463 31.9240875 1.5385456 31.9240875 42.4044571"></polyline>
            <path d="M40.1010361,11.176445 C42.7241516,12.6909027 44.8456192,16.3594704 44.8370743,19.3736534 C44.8285294,22.3878136 42.6932221,23.598732 40.0701065,22.0842743 C37.4521408,20.5727882 35.3306732,16.9042244 35.3392181,13.8900604 C35.3477631,10.8758812 37.4830627,9.6649609 40.1010361,11.176445 Z" id="Path" fill="#5E5E5E" fill-rule="nonzero"></path>
            <path d="M47.5852356,19.9084167 L82.4951553,39.9530334" id="Path" stroke="#B8B8B8" stroke-linecap="round" stroke-linejoin="round"></path>
            <path d="M47.5852356,45.486908 L67.1729202,56.6852264" id="Path" stroke="#B8B8B8" stroke-linecap="round" stroke-linejoin="round"></path>
            <path d="M47.5852356,48.5137787 L67.1729202,59.7120972" id="Path" stroke="#B8B8B8" stroke-linecap="round" stroke-linejoin="round"></path>
            <path d="M47.5852356,39.4291153 L67.1729202,50.6274414" id="Path" stroke="#B8B8B8" stroke-linecap="round" stroke-linejoin="round"></path>
            <path d="M47.5852356,42.455986 L67.1729202,53.6543121" id="Path" stroke="#B8B8B8" stroke-linecap="round" stroke-linejoin="round"></path>
            <path d="M47.5852356,33.3713264 L67.1729202,44.5696487" id="Path" stroke="#B8B8B8" stroke-linecap="round" stroke-linejoin="round"></path>
            <path d="M47.5852356,36.3981972 L67.1729202,47.5965195" id="Path" stroke="#B8B8B8" stroke-linecap="round" stroke-linejoin="round"></path>
            <path d="M47.5852356,30.3404083 L67.1729202,41.5387306" id="Path" stroke="#B8B8B8" stroke-linecap="round" stroke-linejoin="round"></path>
            <path d="M47.5852356,22.8680229 L73.1284637,37.534462" id="Path" stroke="#B8B8B8" stroke-linecap="round" stroke-linejoin="round"></path>
            <path d="M39.9527969,13.2501144 C40.4891204,13.5597572 40.9036331,13.9680976 41.2091674,14.4751777 C41.5146789,14.9822425 41.666748,15.4815635 41.6653594,15.9731063 C41.6645659,16.2518882 41.61911,16.4975433 41.5290145,16.6953735 C41.4452819,16.9042167 41.3040694,17.0872383 41.1117477,17.2554397 C40.9899292,17.3688239 40.7593307,17.5002365 40.432724,17.6570396 C40.1061401,17.8138656 39.8948059,17.9196586 39.8050995,17.9780922 C39.7217636,18.0475502 39.6512222,18.1170578 39.5934754,18.1865883 L41.6557084,19.3772202 L41.6525651,20.4850312 L38.0133058,18.3839036 C38.0591966,17.9915391 38.1752321,17.6617089 38.3742372,17.4018289 C38.5732118,17.1419374 38.964081,16.8679086 39.5468294,16.5870935 C40.0143358,16.3573114 40.3025972,16.1857111 40.4052812,16.0612756 C40.5528184,15.9039575 40.6237337,15.7024041 40.6244203,15.4603044 C40.625168,15.1961862 40.561905,14.9539072 40.441002,14.737137 C40.3137056,14.5240213 40.1415254,14.3511278 39.9244462,14.2257959 C39.707367,14.1004678 39.5347825,14.0743105 39.4066392,14.1546365 C39.278534,14.2276536 39.2012101,14.4328576 39.181099,14.7666131 L38.14711,14.0520669 C38.2128067,13.4359857 38.4056702,13.0770303 38.7321091,12.9789125 C39.0585251,12.8807793 39.4675674,12.9699669 39.9527969,13.2501144 Z" id="Path" fill="#FFFFFF" fill-rule="nonzero"></path>
            <polygon id="Path" stroke="#272727" stroke-linecap="round" stroke-linejoin="round" points="70.160881 118.963516 70.160881 64.5395584 11.5366745 30.6928596 11.5366745 85.1168137"></polygon>
            <path d="M19.713623,40.330761 C22.3367385,41.8452187 24.4582138,45.5137864 24.4496688,48.5279694 C24.4411239,51.5421296 22.3058166,52.7530442 19.6826972,51.2385865 C17.0647277,49.7271043 14.9432601,46.0585404 14.951805,43.0443803 C14.9603539,40.0301933 17.0956535,38.8192749 19.713623,40.330761 Z" id="Path" fill="#00A86A" fill-rule="nonzero"></path>
            <path d="M20.3287582,43.0212402 L20.3109817,49.292366 L19.2699813,48.6913452 L19.282772,44.178978 C18.900257,44.3674012 18.4510497,44.4105454 17.9351463,44.3084259 L17.9382209,43.2247467 C18.2064819,43.278801 18.5059394,43.2559586 18.8262595,43.1561813 C19.1414489,43.0475082 19.3639869,42.8438339 19.4835891,42.5332794 L20.3287582,43.0212402 Z" id="Path" fill="#FFFFFF" fill-rule="nonzero"></path>
            <g id="Group" transform="translate(26.000000, 59.000000)" fill="#00A86A" fill-rule="nonzero">
                <path d="M17.2150879,17.0542603 C17.6671143,17.8371964 17.9485474,18.7173768 17.9463196,19.5049439 L17.9458161,19.6826325 C17.9435807,20.470192 17.6580811,21.0230637 17.2031022,21.2823792 C16.7481309,21.5416565 16.1236573,21.5014039 15.4382325,21.1056748 L3.224495,14.0540696 C2.5390778,13.6583405 1.9164124,12.9785615 1.4643937,12.1956254 C1.0123673,11.4126512 0.7309342,10.5324708 0.7331696,9.7449037 L0.7336731,9.5672151 C0.7359009,8.7796556 1.0214005,8.2267839 1.4763794,7.9675065 C1.9313583,7.708191 2.5558319,7.7484437 3.2412491,8.1441728 L15.4549866,15.195778 C16.1404114,15.591507 16.7630692,16.271286 17.2150879,17.0542603 Z M15.4526215,19.6726532 C16.1947098,20.1010971 16.7996369,19.7623138 16.8020554,18.9095612 C16.8044739,18.0568467 16.2034378,17.0217667 15.4613495,16.5933228 C14.7192612,16.1648789 14.1194916,16.5066681 14.1170731,17.3593903 C14.1146545,18.2121429 14.7105331,19.2442093 15.4526215,19.6726532 L15.4526215,19.6726532 Z M3.2131119,12.606163 C3.9552002,13.0346145 4.5601273,12.6958313 4.5625458,11.8430786 C4.5649643,10.9903641 3.9639282,9.9552841 3.2218399,9.5268402 C2.4797516,9.0983963 1.879982,9.4401855 1.8775635,10.2929001 C1.875145,11.1456528 2.4710236,12.1777191 3.2131119,12.606163 L3.2131119,12.606163 Z M12.8998566,17.0125122 C13.0544587,17.1017685 13.183693,17.0340347 13.1842118,16.8504639 C13.1847382,16.666893 13.0563279,16.4444733 12.9017258,16.355217 L5.5992356,12.139122 C5.4394761,12.0468826 5.3102265,12.1205368 5.3097077,12.3041153 C5.3091813,12.4876862 5.4376145,12.7041779 5.5973664,12.7964172 L12.8998566,17.0125122 L12.8998566,17.0125122 Z" id="Shape"></path>
                <path d="M26.1077042,26.6428833 C26.1692734,26.7792816 26.1791764,26.9154816 26.1273651,26.9923172 C26.0806579,27.0780716 25.9825668,27.0867004 25.874321,27.0242004 L24.18396,26.0601425 C23.2975464,25.5483703 22.5105973,24.5542602 21.9615479,23.4068527 C21.8075791,23.0925522 21.6794205,22.769432 21.5616532,22.4345474 L18.4541016,20.6403961 C18.490799,20.4421158 18.5171967,20.2378845 18.5178299,20.012886 L18.5183411,19.8351974 C18.5187378,19.6930847 18.4933701,19.5360946 18.4782944,19.3909759 C18.3028565,17.5458297 17.0234986,15.4429855 15.4568482,14.5384826 L4.8406907,8.4092407 L4.5366364,8.233696 L4.5445939,5.4267807 C4.5448304,5.3438644 4.5708543,5.2698975 4.6276933,5.2434235 C4.6794053,5.2139511 4.751671,5.2200776 4.8289491,5.2647019 L6.6120607,6.2941743 L6.6184007,0.4138642 C6.6186525,0.325058 6.6498185,0.2599946 6.7015458,0.2246018 C6.7583848,0.1981278 6.8306428,0.2042542 6.9079286,0.2488709 L11.9686586,3.1706849 C12.1284181,3.2629243 12.2568285,3.4853364 12.2563097,3.6689149 C12.2558062,3.8465654 12.1265566,3.9202195 11.9667971,3.8279878 L11.8688586,3.7714387 L13.3944934,10.0498735 L13.3991931,10.2127306 L19.9131702,13.9735796 C19.9853366,14.0152437 20.0573658,14.0924227 20.1138996,14.1843874 C20.1652759,14.2733385 20.1959461,14.3800432 20.1957172,14.4629595 L20.1791309,20.3136294 L21.184029,20.8938067 C21.1232304,20.4968874 21.0778812,20.1029589 21.0789951,19.7121203 C21.0824817,18.480408 21.4206318,17.5546038 21.9795765,17.046921 C22.5333332,16.536217 23.3233341,16.4525683 24.2045979,16.961365 C24.2818837,17.0059817 24.3591008,17.0861285 24.4104619,17.1810382 C24.4669576,17.27298 24.4924779,17.3766711 24.4922261,17.4655154 C24.4919591,17.4698031 24.4868245,17.5513461 24.4863515,17.7171481 C24.4847875,18.2679065 24.5066533,19.6625293 24.7238622,21.3419497 C24.9410629,23.0154724 25.3587799,24.9826965 26.1077042,26.6428833 Z M9.9257278,8.2073288 L12.8374481,9.8884048 L11.2659149,3.4233245 L9.9414596,2.6586532 L9.9257278,8.2073288 L9.9257278,8.2073288 Z" id="Shape"></path>
            </g>
            <path d="M27.1978302,49.0627289 L62.1077499,69.1073456" id="Path" stroke="#B8B8B8" stroke-linecap="round" stroke-linejoin="round"></path>
            <path d="M27.1978302,76.1027832 L62.1077499,96.1473999" id="Path" stroke="#B8B8B8" stroke-linecap="round" stroke-linejoin="round"></path>
            <path d="M27.1978302,79.1296539 L62.1077499,99.1742706" id="Path" stroke="#B8B8B8" stroke-linecap="round" stroke-linejoin="round"></path>
            <path d="M27.1978302,82.1565247 L62.1077499,102.201141" id="Path" stroke="#B8B8B8" stroke-linecap="round" stroke-linejoin="round"></path>
            <path d="M27.1978302,85.183403 L52.4586945,99.6877136" id="Path" stroke="#B8B8B8" stroke-linecap="round" stroke-linejoin="round"></path>
            <path d="M55.515892,72.7887115 L62.1077499,76.5736313" id="Path" stroke="#B8B8B8" stroke-linecap="round" stroke-linejoin="round"></path>
            <path d="M55.515892,75.8155823 L62.1077499,79.600502" id="Path" stroke="#B8B8B8" stroke-linecap="round" stroke-linejoin="round"></path>
            <path d="M55.515892,78.842453 L59.7325974,81.2636032" id="Path" stroke="#B8B8B8" stroke-linecap="round" stroke-linejoin="round"></path>
            <path d="M27.1978302,52.0223389 L52.7410583,66.6887741" id="Path" stroke="#B8B8B8" stroke-linecap="round" stroke-linejoin="round"></path>
            <g id="Group" transform="translate(72.000000, 45.000000)">
                <g fill="#5E5E5E" fill-rule="nonzero" id="Path">
                    <path d="M5.8712845,0.4473953 C7.0840378,1.147583 8.0645981,2.8399505 8.0606461,4.2335129 C8.0566941,5.6270523 7.069748,6.189476 5.856987,5.4892884 C4.644226,4.7891008 3.6636887,3.0907517 3.6676407,1.6972047 C3.6715927,0.3036423 4.6585236,-0.2527924 5.8712845,0.4473953 Z"></path>
                    <path d="M5.8556442,5.9617767 C6.7085724,6.4541168 7.4615249,7.1101303 8.1024017,7.893959 C8.7570572,8.6852874 9.281044,9.5928726 9.6798248,10.5300216 C9.9491424,11.1587753 10.1662826,11.8053207 10.3469009,12.4607467 C10.5842437,13.3346328 10.7485427,14.2262725 10.8658676,15.1386871 C11.0188293,16.3532638 11.0778427,17.6034393 11.0742798,18.8594207 C11.0726013,19.4515456 10.6496277,19.6925735 10.1291275,19.3920592 C9.6138382,19.0945586 9.1936111,18.3667067 9.1952896,17.7745818 C9.1985626,16.6202697 9.1391678,15.5016631 9.0117874,14.4576186 C8.8996734,13.54821 8.7300262,12.7014312 8.5079803,11.9501952 L8.4578094,29.6477279 C8.4556884,30.3953399 7.928276,30.695877 7.2776565,30.3202438 C6.6270294,29.9446029 6.1030349,29.0370407 6.1051559,28.289421 L6.1328582,18.5165939 L5.5082626,18.1559829 L5.4805603,27.92881 C5.4784393,28.676422 4.945816,28.9739531 4.3003998,28.6013259 C3.6497803,28.225685 3.1257935,27.3181228 3.1279144,26.5705108 L3.1780853,8.8729781 C3.1518554,8.9297255 3.1256485,8.9804915 3.1046371,9.0342559 C2.9208602,9.4972762 2.7732391,10.077011 2.6670608,10.7465743 C2.5289535,11.6493224 2.4633789,12.7137298 2.4600524,13.8859939 C2.4583739,14.4781188 2.0353927,14.719139 1.5149001,14.4186324 C0.9996032,14.1211318 0.5793761,13.3932799 0.5810546,12.801155 C0.5845641,11.5631026 0.6503982,10.4089736 0.8044967,9.3836593 C0.9585952,8.3583755 1.2009429,7.4678878 1.5730819,6.766159 C1.8246536,6.3003539 2.1333312,5.9214248 2.5198745,5.6593627 C3.031784,5.3079146 3.6890182,5.190132 4.4548797,5.3747024 C4.8925171,5.4776077 5.3611755,5.6762924 5.8556442,5.9617767 Z"></path>
                </g>
                <polyline id="Path" stroke="#FFFFFF" stroke-width="0.7" stroke-linecap="round" stroke-linejoin="round" points="4.3598328 4.6402817 4.3598328 11.2269287 3.1498108 11.8335648"></polyline>
                <polyline id="Path" stroke="#FFFFFF" stroke-width="0.7" stroke-linecap="round" stroke-linejoin="round" points="7.357666 6.3710785 7.357666 12.9577255 8.7233658 15.4337234"></polyline>
                <path d="M4.4713669,7.8235321 L7.2675781,9.4379272" id="Path" stroke="#FFFFFF" stroke-width="0.7" stroke-linecap="round" stroke-linejoin="round"></path>
                <path d="M2.1791306,25.2984924 L9.5598145,29.5597305" id="Path" stroke="#FFFFFF" stroke-width="0.7" stroke-linecap="round" stroke-linejoin="round"></path>
            </g>
            <polygon id="Path" stroke="#272727" stroke-width="2" stroke-linecap="round" stroke-linejoin="round" points="11.1273994 64.8087921 0.5503006 58.6548538 0.5503006 3.3654976 31.4642639 21.1061668 31.4642639 0.8173809 90.8882904 35.0487022 90.8882904 90.3380508 70.5514297 78.7032471 70.5514297 119.617371 11.1273994 85.2898941"></polygon>
        </g>
    </g>
</svg>